<svg viewBox="0 0 24 24" fill="none" xmlns="http://www.w3.org/2000/svg" id="Notebook-Minimalistic--Streamline-Solar-Ar" height="24" width="24">
  <desc>
    Notebook Minimalistic Streamline Icon: https://streamlinehq.com
  </desc>
  <path d="m20.082 3.01775 0.0261 0.74954 -0.0261 -0.74954Zm-3.582 0.46969 -0.2151 -0.71849 0.2151 0.71849Zm-2.8262 1.31531 -0.3756 -0.64912 0.3756 0.64912ZM3.9824 3.07489l-0.04601 0.74859 0.04601 -0.74859ZM7 3.48744l0.19136 -0.72517L7 3.48744Zm3.2823 1.38802 -0.35063 0.66301 0.35063 -0.66301Zm3.3453 15.19374 0.3528 0.6619 -0.3528 -0.6619ZM17 18.6334l-0.1914 -0.7252 0.1914 0.7252Zm2.9851 -0.4106 0.0469 0.7486 -0.0469 -0.7486Zm-9.6127 1.8464 -0.3528 0.6619 0.3528 -0.6619ZM7 18.6334l0.19136 -0.7252L7 18.6334Zm-2.98514 -0.4106 -0.04682 0.7486 0.04682 -0.7486ZM2.75 16.1436V4.9978h-1.5v11.1458h1.5Zm20 0V4.93319h-1.5V16.1436h1.5ZM20.0559 2.2682c-1.1384 0.03965 -2.6263 0.15807 -3.771 0.50075l0.4302 1.43699c0.9492 -0.28415 2.2741 -0.39967 3.393 -0.43865l-0.0522 -1.49909Zm-3.771 0.50075c-0.995 0.29789 -2.1143 0.87973 -2.9867 1.38468l0.7513 1.29825c0.8505 -0.49219 1.8454 -1.00039 2.6656 -1.24594l-0.4302 -1.43699ZM3.93639 3.82348c0.96599 0.05937 2.06004 0.17481 2.87225 0.38914l0.38272 -1.45035c-0.96081 -0.25354 -2.17619 -0.37532 -3.16295 -0.43597l-0.09202 1.49718Zm2.87225 0.38914c0.96212 0.25389 2.14622 0.80934 3.12303 1.32585l0.70113 -1.32603c-0.99544 -0.52638 -2.30514 -1.15033 -3.44144 -1.45017l-0.38272 1.45035ZM13.9804 20.7311c0.991 -0.5283 2.2184 -1.1106 3.211 -1.3726l-0.3828 -1.4503c-1.1703 0.3088 -2.5259 0.9619 -3.5338 1.4992l0.7056 1.3237Zm3.211 -1.3726c0.8029 -0.2119 1.8818 -0.3272 2.8406 -0.3871l-0.0937 -1.4971c-0.9801 0.0613 -2.1792 0.1831 -3.1297 0.4339l0.3828 1.4503Zm-6.4662 0.0489c-1.00793 -0.5373 -2.3635 -1.1904 -3.53384 -1.4992l-0.38272 1.4503c0.99256 0.262 2.21996 0.8443 3.21096 1.3726l0.7056 -1.3237Zm-3.53384 -1.4992c-0.95044 -0.2508 -2.1496 -0.3726 -3.12968 -0.4339l-0.09364 1.4971c0.95876 0.0599 2.03762 0.1752 2.8406 0.3871l0.38272 -1.4503ZM21.25 16.1436c0 0.6857 -0.5683 1.2842 -1.3117 1.3307l0.0937 1.4971c1.4742 -0.0923 2.718 -1.2916 2.718 -2.8278h-1.5Zm1.5 -11.21041c0 -1.4633 -1.1653 -2.71824 -2.6941 -2.66499l0.0522 1.49909c0.6148 -0.02141 1.1419 0.48432 1.1419 1.1659h1.5ZM1.25 16.1436c0 1.5362 1.24378 2.7355 2.71804 2.8278l0.09364 -1.4971c-0.74337 -0.0465 -1.31168 -0.645 -1.31168 -1.3307h-1.5Zm12.0248 3.2638c-0.7923 0.4223 -1.7573 0.4223 -2.5496 0l-0.7056 1.3237c1.2333 0.6574 2.7275 0.6574 3.9608 0l-0.7056 -1.3237Zm0.0234 -15.25377c-0.8181 0.47346 -1.8365 0.49707 -2.6654 0.05881l-0.70113 1.32603c1.29223 0.6833 2.85933 0.64178 4.11783 -0.08659l-0.7513 -1.29825ZM2.75 4.9978c0 -0.69718 0.55243 -1.21329 1.18639 -1.17432l0.09202 -1.49718C2.47017 2.23053 1.25 3.49864 1.25 4.9978h1.5Z" fill="#000000" stroke-width="1.5"></path>
  <path d="M12 5.50049V20.5005" stroke="#000000" stroke-width="1.5"></path>
</svg>